<?xml version="1.0" encoding="iso-8859-1"?>
<!-- Generator: Adobe Illustrator 21.0.0, SVG Export Plug-In . SVG Version: 6.00 Build 0)  -->
<svg version="1.1" id="Warstwa_1" xmlns="http://www.w3.org/2000/svg" xmlns:xlink="http://www.w3.org/1999/xlink" x="0px" y="0px"
	 viewBox="0 0 89.758 89.758" style="enable-background:new 0 0 89.758 89.758;" xml:space="preserve">
<path style="fill:#DC4E41;" d="M44.879,0C20.094,0,0,20.094,0,44.879s20.094,44.879,44.879,44.879
	c24.785,0,44.879-20.094,44.879-44.879S69.664,0,44.879,0z M48.051,59.063c-3.153,4.058-8.144,6.144-13.194,6.298
	c-2.296,0.07-4.604-0.258-6.759-0.982c-6.399-2.102-11.272-8.005-12.283-14.622c-0.144-0.945-0.21-1.905-0.19-2.87
	c-0.363-9.543,7.996-18.359,17.547-18.473c4.867-0.414,9.601,1.477,13.289,4.559c-1.512,1.66-3.051,3.305-4.691,4.84
	c-0.977-0.593-2.015-1.141-3.09-1.585c-2.496-1.029-5.201-1.483-7.848-0.552c-5.73,1.629-9.343,8.074-7.91,13.804
	c0.096,0.382,0.214,0.76,0.355,1.133c0.332,1.108,0.851,2.122,1.501,3.034c0.038,0.053,0.069,0.111,0.107,0.163
	c0.134,0.181,0.286,0.348,0.431,0.521c0.109,0.129,0.209,0.266,0.324,0.391c0.088,0.095,0.187,0.18,0.278,0.272
	c0.463,0.468,0.957,0.906,1.493,1.29c0.177,0.127,0.365,0.237,0.548,0.354c0.149,0.095,0.293,0.199,0.446,0.288
	c3.078,1.778,6.948,2.216,10.298,0.739c3.082-1.101,5.113-3.945,6.008-7.004c-3.535-0.07-7.07-0.027-10.602-0.125
	c-0.011-2.101-0.019-4.195-0.011-6.297c5.894-0.011,11.797-0.027,17.699,0.024c0.008,0.111,0.012,0.223,0.019,0.334
	C52.123,49.649,51.327,55.014,48.051,59.063z M73.855,49.52c-1.757,0.008-3.523,0.019-5.281,0.027
	c-0.019,1.766-0.027,3.524-0.035,5.293c-1.758-0.012-3.516,0-5.266,0c-0.019-1.769-0.019-3.527-0.035-5.285
	c-1.758-0.02-3.527-0.027-5.285-0.035v-5.266c1.758-0.008,3.516-0.019,5.285-0.035c0.008-1.758,0.028-3.523,0.043-5.285h5.258
	c0.008,1.762,0.023,3.527,0.035,5.285c1.758,0.019,3.524,0.027,5.281,0.035V49.52z"/>
</svg>
