<?xml version="1.0" encoding="iso-8859-1"?>
<!-- Generator: Adobe Illustrator 21.0.0, SVG Export Plug-In . SVG Version: 6.00 Build 0)  -->
<svg version="1.1" id="Layer_1" xmlns="http://www.w3.org/2000/svg" xmlns:xlink="http://www.w3.org/1999/xlink" x="0px" y="0px"
	 viewBox="92.675 279.363 258.447 212.137" style="enable-background:new 92.675 279.363 258.447 212.137;" xml:space="preserve">
<g>
	<path style="fill:#030912;" d="M329.354,405.247l21.769-3.119l-12.608-20.425l11.924-25.193l-30.474,5.382v7.266l-6.227,0.923
		v-75.149l-91.621-15.567l-91.622,15.567v102.357l-6.76,1.003V391.2l-31.06,4.014l12.313,19.948l-11.645,24.603l20.167-2.755v8.417
		l22.913-3.401l85.693,49.475l91.621-52.898v-22.905l15.617-2.317V405.247z M225.148,469.834c0,1.867-1.512,3.378-3.378,3.378
		c-1.868,0-3.381-1.511-3.381-3.378c0-1.868,1.513-3.381,3.381-3.381C223.636,466.453,225.148,467.966,225.148,469.834z
		 M344.818,360.798l-9.237,19.517c-0.47,0.993-0.406,2.156,0.171,3.093l10.007,16.21l-16.406,2.351v-34.205l-5.281-3.302
		L344.818,360.798z M136.984,300.41l85.132-14.465l85.131,14.465v70.637l-4.867,0.72v-66.424l-80.264-13.637l-80.264,13.637v90.26
		l-4.868,0.722V300.41z M299.135,372.249l-154.039,22.872v-87.039l77.02-13.084l77.019,13.084V372.249z M98.838,435.739l9.084-19.19
		c0.47-0.992,0.405-2.156-0.173-3.09l-9.671-15.669l21.324-2.759l-5.492,4.72l-0.399,0.06v33.924L98.838,435.739z M307.248,434.854
		l-85.131,49.152l-75.371-43.515l6.681-0.992l68.69,39.657l80.264-46.339v-15.435l4.867-0.722V434.854z M326.107,410.58
		l-25.024,3.716v-0.234c-0.42,0.159-0.85,0.298-1.284,0.424l-183.045,27.18V402.61l209.352-31.084V410.58z"/>
	<g>
		<path style="fill:#030912;" d="M135.892,427.366l-0.563,3.936l-4.401,0.646l3.842-21.628l5.579-0.819l3.845,20.498l-4.556,0.67
			l-0.521-3.776L135.892,427.366z M137.491,413.426l-1.285,10.357l2.604-0.383L137.491,413.426z"/>
		<path style="fill:#030912;" d="M157.924,427.98l-4.99,0.733l-2.959-11.028l-0.016,11.466l-4.339,0.638l0.029-21.067l4.897-0.72
			l2.96,10.838l0.016-11.275l4.432-0.65L157.924,427.98z"/>
		<path style="fill:#030912;" d="M172.989,425.768l-4.99,0.732l-2.959-11.028l-0.016,11.466l-4.339,0.638l0.029-21.067l4.897-0.72
			l2.959,10.838l0.016-11.275l4.432-0.651L172.989,425.768z"/>
		<path style="fill:#030912;" d="M179.442,420.966l-0.563,3.936l-4.401,0.646l3.842-21.627l5.579-0.82l3.845,20.498l-4.556,0.67
			l-0.521-3.776L179.442,420.966z M181.042,407.025l-1.285,10.357l2.604-0.382L181.042,407.025z"/>
		<path style="fill:#030912;" d="M208.758,420.51l-4.525,0.666l-2.53-7.682l-0.933,1.938l-0.009,6.254l-4.37,0.643l0.029-21.068
			l4.37-0.642l-0.01,7.485l2.924-7.914l4.525-0.664l-3.979,9.301L208.758,420.51z"/>
		<path style="fill:#030912;" d="M209.772,405.709c0.003-2.748,0.377-4.319,1.308-5.467c0.9-1.079,2.606-1.898,4.621-2.194
			c3.471-0.51,5.638,1.382,5.633,4.919l-0.002,1.011l-0.011,7.644c-0.004,3.001-0.191,4.07-0.874,5.214
			c-0.963,1.595-2.793,2.747-4.839,3.048c-2.665,0.392-4.678-0.354-5.389-2.051c-0.247-0.627-0.339-1.435-0.429-3.537
			c-0.03-0.438-0.029-0.785-0.029-0.975L209.772,405.709z M217.024,404.644c0.001-1.201-0.028-1.797-0.152-2.284
			c-0.153-0.608-0.618-0.92-1.238-0.828c-0.65,0.096-1.116,0.479-1.271,0.977c-0.093,0.361-0.156,0.844-0.157,1.412l-0.031,0.384
			v0.379l-0.001,0.38l-0.011,7.611c0.028,2.08-0.002,1.484,0.028,1.732c0.029,1.512,0.432,2.085,1.33,1.953
			c0.682-0.101,1.179-0.554,1.304-1.171c0.093-0.393,0.156-0.971,0.157-1.761v-0.379l0.031-0.415l0.001-0.379L217.024,404.644z"/>
		<path style="fill:#030912;" d="M238.545,416.133l-5.3,0.779l-0.912-12.72l-1.103,13.016l-5.641,0.829l-2.698-20.667l4.557-0.67
			l1.373,14.894l1.354-15.294l4.215-0.62l1.343,14.897l1.415-15.302l4.463-0.656L238.545,416.133z"/>
		<path style="fill:#030912;" d="M246.363,411.131l-0.563,3.936l-4.401,0.646l3.842-21.627l5.579-0.82l3.845,20.498l-4.556,0.67
			l-0.521-3.776L246.363,411.131z M247.963,397.19l-1.285,10.358l2.604-0.383L247.963,397.19z"/>
		<path style="fill:#030912;" d="M265.828,408.396l-0.005,3.728l-9.732,1.431l0.029-21.068l4.432-0.65l-0.023,17.34L265.828,408.396
			z"/>
		<path style="fill:#030912;" d="M274.026,396.645l0.002-1.675c0.002-1.2-0.493-1.821-1.361-1.693
			c-0.93,0.136-1.457,0.719-1.458,1.635c-0.001,0.695,0.184,1.173,0.647,1.705c0.341,0.36,0.681,0.688,1.084,0.978l0.371,0.293
			l0.371,0.261l0.371,0.293c3.591,2.662,4.519,4.073,4.515,6.853c-0.005,3.442-2.053,5.639-5.74,6.181
			c-2.728,0.4-4.834-0.301-5.637-1.856c-0.434-0.852-0.557-1.561-0.554-3.297l0.002-1.58l4.494-0.66l-0.003,1.927
			c-0.002,1.453,0.493,2.107,1.547,1.952c0.898-0.132,1.427-0.811,1.429-1.821c0.002-1.421-0.556-2.224-2.506-3.579
			c-3.776-2.603-4.797-4.063-4.793-6.779c0.004-3.19,2.146-5.558,5.523-6.054c3.007-0.442,5.143,0.57,5.698,2.636
			c0.185,0.731,0.245,1.574,0.274,3.655L274.026,396.645z"/>
		<path style="fill:#030912;" d="M292.976,408.134l-4.525,0.665l-2.529-7.682l-0.933,1.938l-0.009,6.254l-4.37,0.643l0.029-21.067
			l4.37-0.643l-0.011,7.485l2.924-7.913l4.525-0.665l-3.979,9.301L292.976,408.134z"/>
		<path style="fill:#030912;" d="M297.849,403.564l-0.564,3.936l-4.4,0.646l3.842-21.627l5.579-0.82l3.845,20.498l-4.557,0.67
			l-0.521-3.776L297.849,403.564z M299.448,389.624l-1.285,10.358l2.604-0.383L299.448,389.624z"/>
	</g>
	<circle style="fill:#030912;" cx="151.248" cy="312.788" r="3.38"/>
	<circle style="fill:#030912;" cx="293.152" cy="312.788" r="3.38"/>
	<g>
		<path style="fill:#030912;" d="M290.277,362.211l-6.534-12.862l-6.941-9.391l0.409-9.8l-7.962-6.941L256.181,342l-3.541-1.02
			l-4.614,6.614l-3.531-6.955l-9.342-12.641l0.549-13.189l-10.714-9.342L207.4,330.748l-4.765-1.374l-6.96,9.978l-6.52,10.25
			l-2.177-4.863l-1.227-6.502l-6.514-5.676l-11.493,7.781l-1.1,9.342l-5.22,3.468l-5.064,7.964l-2.505-1.502l-10.301,14.922
			l-0.257,22.852l158.075-22.852L290.277,362.211z M156.656,378.412l14.232-20.652l2.486-7.257l4.027-0.927l-0.866-8.867
			l3.582-2.564l-0.712-3.432l4.843,3.841l1.356,6.275l2.652,6.189l-0.914,1.436l-4.122-2.474l-14.996,21.762l-2.484-1.279
			l-5.761,8.922L156.656,378.412z M194.995,390.706l16.253-43.679l7.144-6.044l3.572-7.419l1.923-7.969l-1.374-11.816l2.748-4.672
			l7.968,6.321l-1.647,11.54l10.99,15.386l3.567,8.132l0,0l3.302,7.532l19.067,20.454L194.995,390.706z M271.157,377.591
			l-14.836-16.271l2.719-7.071l3.04-8.869l4.922-1.133l1.429-5.924l1.892-8.056l-0.872-4.193l5.921,4.698l-1.226,8.573l8.167,11.433
			l5.104,11.638l10.21,10.412L271.157,377.591z"/>
		<polygon style="fill:#030912;" points="218.076,385.664 222.822,367.27 226.976,365.193 229.349,345.613 232.316,340.272 
			237.954,356.887 237.36,365.491 232.019,372.017 232.613,383.587 		"/>
		<polygon style="fill:#030912;" points="243.293,366.084 245.074,376.467 243.519,378.213 243.887,380.918 252.194,379.729 
			247.447,371.424 		"/>
		<polygon style="fill:#030912;" points="278.599,375.576 274.148,364.897 276.522,362.524 275.34,357.251 274.537,353.669 
			272.665,345.316 278.896,352.731 283.049,363.71 283.049,369.346 288.093,374.391 		"/>
	</g>
	<g>
		<g>
			<path style="fill:#030912;" d="M193.399,323.098h-4.083v-14.524h-1.968v-2.593c1.146-0.083,1.88-0.529,2.438-1.478h3.613V323.098
				z"/>
			<path style="fill:#030912;" d="M200.92,318.33c0.059,1.478,0.411,1.979,1.38,1.979c0.852,0,1.322-0.585,1.322-1.673v-2.313
				c-0.881,0.78-1.469,1.004-2.555,1.004c-1.205,0-2.262-0.418-2.938-1.115c-0.969-1.06-1.322-2.426-1.322-4.935
				c0-2.982,0.323-4.488,1.233-5.604c0.734-0.892,2.35-1.449,4.171-1.449c2.614,0,4.376,1.115,5.022,3.178
				c0.265,0.753,0.353,1.868,0.353,4.042v3.932v0.334c0,2.983-0.117,4.07-0.558,5.074c-0.764,1.645-2.526,2.592-4.905,2.592
				c-1.998,0-3.583-0.696-4.494-2.007c-0.529-0.78-0.734-1.562-0.734-3.039H200.92z M200.92,312.477
				c0,1.254,0.411,1.867,1.292,1.867c0.94,0,1.41-0.641,1.41-1.867v-3.179c0-1.449-0.44-2.091-1.469-2.091
				c-0.94,0-1.233,0.475-1.233,1.896V312.477z"/>
		</g>
		<g>
			<path style="fill:#030912;" d="M243.057,318.33c0.059,1.478,0.411,1.979,1.38,1.979c0.853,0,1.322-0.585,1.322-1.673v-2.313
				c-0.882,0.78-1.469,1.004-2.556,1.004c-1.204,0-2.262-0.418-2.938-1.115c-0.969-1.06-1.321-2.426-1.321-4.935
				c0-2.982,0.323-4.488,1.233-5.604c0.734-0.892,2.35-1.449,4.171-1.449c2.614,0,4.377,1.115,5.022,3.178
				c0.265,0.753,0.353,1.868,0.353,4.042v3.932v0.334c0,2.983-0.117,4.07-0.558,5.074c-0.764,1.645-2.526,2.592-4.905,2.592
				c-1.998,0-3.584-0.696-4.494-2.007c-0.529-0.78-0.734-1.562-0.734-3.039H243.057z M243.057,312.477
				c0,1.254,0.411,1.867,1.292,1.867c0.94,0,1.41-0.641,1.41-1.867v-3.179c0-1.449-0.44-2.091-1.469-2.091
				c-0.94,0-1.233,0.475-1.233,1.896V312.477z"/>
			<path style="fill:#030912;" d="M251.664,309.326c0-1.395,0.353-2.509,0.998-3.29c0.97-1.143,2.644-1.812,4.553-1.812
				c3.29,0,5.347,1.951,5.347,5.102v8.977c0,1.589-0.5,2.927-1.352,3.735c-0.881,0.837-2.526,1.338-4.259,1.338
				c-2.115,0-3.907-0.808-4.612-2.091c-0.44-0.752-0.675-1.923-0.675-3.233V309.326z M258.479,308.991
				c0-1.115-0.411-1.645-1.264-1.645c-1.027,0-1.438,0.585-1.438,1.979v9.311c0,1.115,0.411,1.673,1.263,1.673
				c0.646,0,1.116-0.251,1.292-0.696c0.147-0.335,0.147-0.362,0.147-1.311V308.991z"/>
		</g>
	</g>
</g>
</svg>
