<?xml version="1.0" encoding="iso-8859-1"?>
<!-- Generator: Adobe Illustrator 21.0.0, SVG Export Plug-In . SVG Version: 6.00 Build 0)  -->
<svg version="1.1" id="Warstwa_1" xmlns="http://www.w3.org/2000/svg" xmlns:xlink="http://www.w3.org/1999/xlink" x="0px" y="0px"
	 viewBox="0 0 89.758 89.758" style="enable-background:new 0 0 89.758 89.758;" xml:space="preserve">
<path style="fill:#55ACEE;" d="M44.879,0C20.094,0,0,20.094,0,44.879c0,24.785,20.094,44.879,44.879,44.879
	c24.785,0,44.879-20.094,44.879-44.879C89.758,20.094,69.664,0,44.879,0z M67.016,37.805c0.019,0.461,0.031,0.922,0.031,1.387
	c0,14.175-10.793,30.523-30.524,30.523c-6.058,0-11.695-1.777-16.441-4.82c0.836,0.101,1.691,0.148,2.559,0.148
	c5.027,0,9.652-1.711,13.324-4.59c-4.695-0.086-8.656-3.187-10.024-7.449c0.657,0.125,1.329,0.192,2.02,0.192
	c0.977,0,1.926-0.133,2.824-0.379c-4.906-0.985-8.605-5.321-8.605-10.516c0-0.047,0-0.09,0-0.137
	c1.449,0.805,3.101,1.289,4.859,1.344c-2.875-1.922-4.769-5.207-4.769-8.93c0-1.965,0.527-3.808,1.453-5.394
	c5.289,6.492,13.195,10.762,22.109,11.211c-0.184-0.785-0.277-1.606-0.277-2.446c0-5.921,4.8-10.726,10.726-10.726
	c3.086,0,5.875,1.301,7.832,3.387c2.442-0.481,4.739-1.375,6.813-2.602c-0.805,2.504-2.504,4.605-4.719,5.934
	c2.168-0.258,4.238-0.836,6.16-1.688C70.93,34.403,69.113,36.293,67.016,37.805z"/>
</svg>
